<svg xmlns="http://www.w3.org/2000/svg" width="100" height="62" fill="none"><path fill="#fff" d="M47.183 61.686c-.74-.017-3.715-.108-6.613-.202-2.897-.093-9.15-.269-13.897-.391-4.746-.122-10.521-.273-12.832-.335a3444.47 3444.47 0 0 0-8.779-.224c-2.516-.06-4.619-.137-4.67-.17-.098-.06-.094-43.383.002-43.456.03-.023.66-.23 1.399-.462 4.929-1.542 36.814-12.15 45.67-15.194L51.105 0l15.13 7.566C86.526 17.713 98.41 23.742 98.312 23.841c-.024.024-.418-.111-.874-.302-1.267-.527-6.46-2.595-10.525-4.19a4502.284 4502.284 0 0 1-24.264-9.704l-6.316-2.562c-2.301-.933-4.319-1.766-4.482-1.849a4.245 4.245 0 0 0-.55-.229l-.252-.077v27.525c0 24.47.02 27.534.17 27.59.171.067 10.258-.056 29.299-.356 10.64-.168 19.595-.212 19.48-.098-.113.113-7.674.529-21.21 1.168-1.295.06-4.523.186-7.173.279-2.65.093-6.887.245-9.414.337-11.534.424-10.865.41-15.018.313zM20.476 46.13c.922-2.713 1.887-5.55 2.141-6.305.256-.755.494-1.373.533-1.373.037 0 .12.164.186.365.065.2.975 2.684 2.022 5.52a730.215 730.215 0 0 1 2.174 5.94l.27.784 3.818.03 3.817.03.203-.76c.223-.828 1.37-4.462 3.918-12.413 1.656-5.168 6.22-19.658 6.539-20.762.094-.324.145-.614.114-.645-.03-.03-1.84.388-4.019.93l-3.964.986-.359 1.172c-.197.645-.872 2.86-1.498 4.926a935.26 935.26 0 0 1-3.732 12.048 369.703 369.703 0 0 0-1.32 4.23c-.275.909-.53 1.652-.569 1.653-.105.002-.636-1.245-1.813-4.258-3.732-9.556-5.353-13.722-5.635-14.486-.177-.477-.349-.868-.381-.868-.031 0-.23.593-.442 1.317-.346 1.187-5.967 18.174-6.306 19.053-.077.2-.168.364-.202.364-.096 0-3.427-10.746-5.089-16.42-.252-.862-.496-1.624-.541-1.694-.057-.088-.602.005-1.85.314-.971.242-2.044.494-2.383.561-.34.068-.657.159-.705.201-.093.082 1.347 5.235 3.335 11.939.641 2.157 1.574 5.31 2.075 7.004.5 1.695 1.085 3.65 1.3 4.345l.392 1.262 3.146-.029 3.146-.03 1.678-4.931zm66.661 5.547c-2.656-.216-4.121-1.434-4.92-4.094-.13-.429-.28-1.235-.334-1.79-.16-1.634-.025-15.532.16-16.456.418-2.081 1.615-3.34 3.344-3.515.658-.067 1.31.076 4.999 1.089 1.382.38 2.842.85 3.245 1.044 1.356.657 2.536 2.178 2.978 3.839.198.742.42 3.641.29 3.775-.045.047-.732-.054-1.527-.226l-1.442-.311-.145-.995c-.078-.548-.249-1.213-.377-1.48-.267-.552-.866-1.12-1.43-1.355-.582-.243-3.789-.94-4.617-1.003-.921-.07-1.36.17-1.717.944-.24.522-.244.616-.276 7.069-.034 7.171-.014 7.434.624 8.366.53.778 1.07.958 3.421 1.146 2.477.198 3.012.123 3.647-.513.602-.602.707-1.044.771-3.23l.055-1.924-.545-.07a86.795 86.795 0 0 1-1.553-.228 45.581 45.581 0 0 0-1.71-.233l-.7-.077v-1.834c0-1.009.039-1.836.085-1.838.046-.002 1.736.287 3.754.64l3.67.64v3.61c0 2.72-.04 3.825-.165 4.476-.418 2.185-1.306 3.509-2.844 4.237l-.745.353-2.466.016c-1.356.008-2.944-.023-3.53-.072zm-26.814-.305-1.653-.036V34.359c0-9.79.043-16.976.1-16.976.054 0 .47.123.925.274.89.295 9.196 2.863 11.303 3.495 2.897.869 4.032 1.47 5.04 2.675.608.728 1.05 1.602 1.427 2.825.297.965.304 1.05.308 3.956.007 3.414-.097 4.104-.843 5.594-.701 1.4-1.802 2.231-3.246 2.452-.445.067-.602.137-.575.254.077.347 5.978 12.015 6.199 12.26a.373.373 0 0 1 .096.199c0 .05-1.144.078-2.542.062l-2.543-.03L73 48.54c-2.206-4.774-4.603-9.855-4.734-10.03-.11-.146-2.824-.617-4.327-.75l-.393-.035v13.673l-.784.006c-.431.002-1.529-.011-2.438-.032zm12.434-17.601c.196-.14.498-.544.672-.897.308-.627.315-.685.315-2.547 0-1.896 0-1.909-.345-2.635-.4-.844-.854-1.338-1.53-1.666-.514-.248-8.155-2.253-8.295-2.177-.046.026-.085 2.033-.085 4.46 0 4.105.014 4.416.197 4.471.107.032 1.356.266 2.773.52 1.418.254 2.931.53 3.363.616a9.313 9.313 0 0 0 1.68.132c.73-.018.963-.07 1.255-.277z"/></svg>