<svg xmlns="http://www.w3.org/2000/svg" width="101" height="78" fill="none"><path fill="#fff" d="M3.128 77.364c-.894-.102-1.458-.398-2.089-1.1-.728-.81-.92-1.443-.92-3.031 0-1.234.017-1.325.369-2.041.437-.888 1.04-1.446 1.92-1.778.903-.34 2.4-.268 3.224.156.714.368 1.269 1.071 1.541 1.956.076.247.062.252-.885.252-.906 0-.969-.016-1.063-.263-.055-.143-.259-.395-.454-.56-.284-.239-.47-.298-.934-.298-.737.001-1.216.285-1.556.92-.223.417-.257.644-.257 1.714 0 1.059.035 1.298.25 1.699.136.255.378.567.535.69.762.6 1.971.31 2.4-.575l.226-.47.9.038c1.017.04 1.048.078.691.86-.625 1.372-2.05 2.041-3.898 1.83zm7.985-.153c-.484-.183-1.134-.632-1.444-.996-.664-.779-1.045-2.14-.934-3.341.212-2.279 1.658-3.674 3.809-3.674 1.147 0 1.839.234 2.532.857 2.073 1.864 1.678 5.725-.71 6.96-.489.251-.74.3-1.695.329-.789.022-1.25-.017-1.558-.135zm1.975-1.285c.296-.002.943-.63 1.128-1.095.256-.647.334-1.5.2-2.22-.257-1.397-.861-2.004-1.92-1.93-.77.053-1.231.358-1.555 1.026-.55 1.136-.362 3.012.374 3.753.38.38.949.596 1.356.513.124-.025.31-.046.417-.047zm16.168 1.254c-.818-.283-1.23-.621-1.557-1.278-.448-.899-.408-1.053.298-1.137 1.085-.13 1.187-.11 1.357.291.267.633.561.805 1.455.85.69.034.845.006 1.111-.203.227-.178.308-.342.308-.619 0-.615-.018-.625-2.536-1.388-1.039-.314-1.496-.63-1.807-1.242-.552-1.093-.12-2.34 1.024-2.95.403-.217.634-.248 1.815-.248 1.31 0 1.372.011 1.899.337.375.232.625.495.798.841.458.912.44.947-.516.985l-.836.034-.343-.41c-.284-.339-.435-.419-.89-.469-.953-.108-1.627.463-1.24 1.052.158.242.5.37 2.064.77.911.231 1.714.636 2.007 1.01 1 1.27.22 3.304-1.458 3.803-.782.232-2.239.218-2.953-.03zm25.005.026a2.661 2.661 0 0 1-1.496-1.316l-.307-.582-.036-2.998-.037-2.998h1.921v2.808c0 3.106.039 3.308.693 3.647.245.126.526.166.916.129.465-.045.627-.123.924-.447.334-.365.364-.468.437-1.443.042-.578.06-1.858.039-2.845l-.038-1.793.924-.032.925-.033v2.73c0 3.282-.07 3.637-.891 4.458-.388.386-.705.587-1.133.713-.734.22-2.246.22-2.841.002zm9.117-.035c-1.45-.567-2.236-1.911-2.234-3.816.005-2.614 1.397-4.155 3.754-4.155 1.042 0 1.885.298 2.46.87.457.457.8 1.045.863 1.485.039.275.029.279-.881.311l-.92.033-.23-.45c-.273-.538-.715-.792-1.37-.792-1.056.001-1.66.79-1.749 2.282-.1 1.68.403 2.762 1.379 2.963.873.18 1.454-.1 1.863-.902l.214-.42h.842c1.005 0 1.066.075.715.889-.324.754-1.17 1.518-1.929 1.743-.776.231-2.134.211-2.777-.041zm21.236-.02c-.83-.319-1.436-.892-1.864-1.761-.355-.722-.369-.8-.369-2.097 0-1.246.024-1.394.312-1.981.393-.803 1.073-1.507 1.744-1.808.797-.358 2.342-.4 3.175-.085 1.689.636 2.644 2.714 2.228 4.847-.273 1.396-1.257 2.609-2.39 2.946-.803.24-2.131.21-2.836-.061zm1.976-1.226c.34 0 .972-.641 1.191-1.21.32-.828.281-2.275-.076-2.993-.354-.707-.871-1.065-1.541-1.065-.722 0-1.217.278-1.573.883-.28.479-.304.611-.304 1.75 0 1.102.029 1.284.273 1.711.15.262.401.562.558.664.327.214.892.37 1.11.304a1.53 1.53 0 0 1 .362-.044zM18.695 77.18l-.252-.038v-7.83l.98.004.982.003.348.585c.192.322.847 1.431 1.457 2.466l1.108 1.88.03-2.469.03-2.469h1.79v3.916c0 2.35-.043 3.943-.107 3.982-.058.036-.512.032-1.007-.01l-.903-.075-1.218-2.029c-.671-1.116-1.328-2.243-1.46-2.506-.132-.262-.268-.476-.3-.476-.032 0-.044 1.148-.026 2.55l.033 2.55-.616.002a8.25 8.25 0 0 1-.869-.036zm19.557.002-.644-.036V70.77h-2.354v-1.458h6.613v1.458h-2.351l-.029 3.22-.03 3.22-.28.004c-.155.003-.57-.01-.925-.03zm5.532-.007c-.259-.037-.264-.059-.196-.784.038-.41.07-2.171.07-3.913l.002-3.166 2.27.001c2.376 0 2.836.064 3.459.478 1.19.79 1.158 2.867-.055 3.642l-.51.33c-.026.018.06.148.19.287.195.205 1.594 2.99 1.594 3.17 0 .094-1.666.05-1.933-.051-.207-.08-.369-.372-.737-1.334-.26-.678-.554-1.299-.653-1.382-.112-.092-.481-.149-.978-.151l-.798-.003-.056 1.457-.056 1.457h-.672c-.37 0-.793-.016-.94-.038zm3.88-4.452c.433-.069.703-.417.703-.905 0-.847-.354-1.049-1.844-1.049h-1.07v.99c0 .544.027 1.017.06 1.05.066.066 1.576.005 2.15-.086zm24.414 4.461c-.034-.035-.064-1.492-.064-3.24V70.77H69.55v-1.46l3.446.03 3.446.03v1.344l-1.258.032-1.26.032-.03 3.218-.03 3.218-.86.017c-.473.01-.89-.01-.925-.046zm6.801.006-.476-.045v-7.833h1.908l-.03 3.95-.03 3.951-.447.012a9.646 9.646 0 0 1-.925-.035zm13.56-.003-.587-.04v-7.835h1.963l.94 1.597c.515.879 1.17 2 1.455 2.494l.517.896.03-2.493.03-2.494h1.789v3.91c0 3.25-.027 3.922-.157 3.971-.086.034-.542.032-1.013-.004l-.855-.064-1.336-2.254a136.325 136.325 0 0 0-1.48-2.458c-.122-.17-.146.216-.146 2.289v2.493l-.28.016a9.306 9.306 0 0 1-.87-.024zM47.303 62.284a1235.7 1235.7 0 0 1-6.612-.202 2771.65 2771.65 0 0 0-13.897-.391c-4.747-.122-10.522-.272-12.833-.335-2.31-.063-6.261-.164-8.778-.224-2.517-.06-4.619-.137-4.67-.17-.098-.06-.095-43.383.002-43.456.03-.023.659-.23 1.398-.462 4.93-1.542 36.814-12.15 45.67-15.194L51.225.598l15.13 7.566C86.645 18.311 98.53 24.34 98.43 24.44c-.023.025-.418-.111-.874-.302-1.266-.527-6.459-2.595-10.525-4.19a4502.284 4502.284 0 0 1-24.264-9.704l-6.315-2.562c-2.302-.933-4.32-1.766-4.483-1.849a4.244 4.244 0 0 0-.55-.229l-.251-.077v27.525c0 24.47.019 27.534.169 27.59.171.067 10.258-.056 29.3-.355 10.639-.169 19.594-.214 19.48-.1-.113.114-7.675.53-21.211 1.169-1.294.06-4.522.186-7.173.279-2.65.093-6.887.245-9.414.337-11.533.424-10.864.41-15.018.313zM20.595 46.729c.922-2.712 1.887-5.55 2.142-6.305.255-.755.494-1.373.532-1.373.037 0 .121.164.186.365.065.2.975 2.684 2.022 5.52a726.275 726.275 0 0 1 2.174 5.94l.271.784 3.818.03 3.817.03.203-.76c.223-.828 1.37-4.462 3.918-12.413 1.655-5.168 6.219-19.658 6.538-20.762.094-.324.146-.614.114-.644-.03-.03-1.839.387-4.018.93l-3.965.985-.358 1.172c-.197.645-.872 2.86-1.499 4.926a935.19 935.19 0 0 1-3.732 12.048 372.55 372.55 0 0 0-1.32 4.23c-.274.909-.53 1.652-.568 1.653-.105.002-.637-1.245-1.813-4.258-3.732-9.556-5.353-13.722-5.635-14.485-.178-.478-.349-.87-.381-.87-.032.002-.231.594-.442 1.318-.346 1.187-5.968 18.174-6.306 19.053-.078.2-.169.364-.202.364-.097 0-3.427-10.746-5.09-16.42-.252-.862-.496-1.624-.54-1.694-.058-.088-.603.005-1.85.314a75.02 75.02 0 0 1-2.384.561c-.34.068-.657.159-.705.201-.093.082 1.347 5.235 3.336 11.939.64 2.157 1.573 5.31 2.074 7.004.5 1.695 1.086 3.65 1.301 4.346l.391 1.261 3.146-.029 3.146-.03 1.679-4.931zm66.662 5.547c-2.657-.216-4.122-1.434-4.92-4.094-.13-.429-.28-1.235-.335-1.79-.16-1.634-.024-15.532.16-16.456.419-2.08 1.616-3.34 3.345-3.514.658-.068 1.31.075 4.998 1.088 1.382.38 2.843.85 3.245 1.044 1.356.657 2.536 2.178 2.979 3.839.197.742.42 3.641.29 3.775-.046.047-.733-.054-1.527-.225l-1.443-.312-.144-.995c-.079-.548-.25-1.213-.378-1.48-.267-.552-.865-1.12-1.429-1.355-.583-.243-3.79-.94-4.617-1.003-.922-.07-1.36.17-1.717.944-.241.522-.245.616-.276 7.068-.035 7.172-.015 7.435.623 8.367.531.778 1.07.958 3.422 1.147 2.477.197 3.011.122 3.647-.514.601-.602.707-1.044.77-3.23l.056-1.924-.545-.07a84.19 84.19 0 0 1-1.553-.228 46.031 46.031 0 0 0-1.71-.233l-.7-.077v-1.834c0-1.009.038-1.836.084-1.838.046-.001 1.736.287 3.755.64l3.67.64v3.61c0 2.72-.04 3.825-.166 4.476-.418 2.185-1.306 3.509-2.843 4.238l-.746.353-2.465.015c-1.356.008-2.944-.023-3.53-.072zm-26.814-.306-1.653-.035V34.957c0-9.79.042-16.976.1-16.976.053 0 .47.123.924.274.891.296 9.197 2.863 11.304 3.495 2.897.869 4.031 1.47 5.039 2.675.608.728 1.05 1.602 1.428 2.825.297.965.303 1.05.308 3.956.006 3.414-.098 4.104-.843 5.594-.702 1.4-1.802 2.231-3.247 2.452-.445.067-.602.137-.575.255.078.346 5.978 12.014 6.199 12.26a.373.373 0 0 1 .096.198c0 .05-1.144.078-2.541.062l-2.543-.03-1.32-2.859c-2.206-4.774-4.603-9.855-4.735-10.03-.11-.146-2.824-.617-4.327-.75l-.392-.035v13.673l-.785.006c-.431.002-1.528-.011-2.437-.032zm12.433-17.6c.196-.14.499-.543.673-.896.308-.628.315-.686.315-2.548 0-1.896-.002-1.909-.346-2.635-.4-.844-.853-1.338-1.53-1.665-.514-.25-8.155-2.254-8.295-2.178-.046.026-.084 2.033-.084 4.46 0 4.105.013 4.416.196 4.471.108.032 1.356.266 2.774.52s2.93.53 3.362.616a9.304 9.304 0 0 0 1.681.132c.73-.018.963-.07 1.254-.277z"/></svg>